<?xml version="1.0" standalone="no"?><!DOCTYPE svg PUBLIC "-//W3C//DTD SVG 1.1//EN" "http://www.w3.org/Graphics/SVG/1.1/DTD/svg11.dtd"><svg class="icon" width="200px" height="200.00px" viewBox="0 0 1024 1024" version="1.1" xmlns="http://www.w3.org/2000/svg"><path fill="#333333" d="M514.133333 85.333333C281.6 85.333333 91.733333 277.333333 91.733333 512s189.866667 426.666667 422.4 426.666667 422.4-192 422.4-426.666667S746.666667 85.333333 514.133333 85.333333z m0 810.666667c-209.066667 0-379.733333-172.8-379.733333-384s170.666667-384 379.733333-384 379.733333 172.8 379.733334 384-170.666667 384-379.733334 384zM691.2 490.666667h-155.733333v-155.733334c0-12.8-8.533333-21.333333-21.333334-21.333333-10.666667 0-21.333333 8.533333-21.333333 21.333333V490.666667h-155.733333c-12.8 0-21.333333 10.666667-21.333334 21.333333 0 12.8 10.666667 21.333333 21.333334 21.333333h155.733333v155.733334c0 12.8 8.533333 21.333333 21.333333 21.333333 10.666667 0 21.333333-8.533333 21.333334-21.333333V533.333333h155.733333c12.8 0 21.333333-10.666667 21.333333-21.333333 0-12.8-10.666667-21.333333-21.333333-21.333333z" /></svg>