<?xml version="1.0" standalone="no"?><!DOCTYPE svg PUBLIC "-//W3C//DTD SVG 1.1//EN" "http://www.w3.org/Graphics/SVG/1.1/DTD/svg11.dtd"><svg class="icon" width="200px" height="144.73px" viewBox="0 0 1415 1024" version="1.1" xmlns="http://www.w3.org/2000/svg"><path fill="#333333" d="M1377.6 1023.936H37.44c-20.576 0-37.44-16.832-37.44-37.44V662.688c0-20.576 16.832-37.44 37.44-37.44 65.504 0 119.808-56.16 119.808-121.664s-54.272-121.664-119.808-121.664c-20.576 0-37.44-16.832-37.44-37.44V37.504C0 16.928 16.832 0.064 37.44 0.064h1340.16c20.576 0 37.44 16.832 37.44 37.44v306.976c0 20.576-14.976 37.44-35.552 37.44-65.504 1.888-116.064 56.16-116.064 121.664s50.528 119.808 116.064 121.664c20.576 0 35.552 16.832 35.552 37.44v323.808c0 20.576-16.832 37.44-37.44 37.44z m-1302.752-74.88H1340.16v-254.56c-87.968-20.576-153.472-97.344-153.472-190.912s65.504-172.192 153.472-190.912V74.976H74.848v235.84c89.856 18.72 157.216 97.344 157.216 192.8 0 93.6-67.392 174.08-157.216 192.8v252.672zM711.232 767.488c-20.576 0-37.44-16.832-37.44-37.44V462.4L544.64 284.576c-11.232-16.832-7.488-41.184 9.344-52.416s39.296-7.488 52.416 9.344l134.752 187.168c5.6 5.6 7.488 13.088 7.488 22.464v280.768c0 18.72-16.832 35.552-37.44 35.552zM711.232 488.608c-7.488 0-14.976-1.888-20.576-7.488-16.832-11.232-22.464-33.696-9.344-50.528l131.008-189.056c11.232-16.832 33.696-22.464 50.528-9.344 16.832 11.232 22.464 33.696 9.344 50.528l-131.008 189.056c-5.6 11.232-18.72 16.832-29.952 16.832zM860.992 496.096h-299.488c-20.576 0-37.44-16.832-37.44-37.44s16.832-37.44 37.44-37.44h299.488c20.576 0 37.44 16.832 37.44 37.44s-16.832 37.44-37.44 37.44zM860.992 627.104h-299.488c-20.576 0-37.44-16.832-37.44-37.44s16.832-37.44 37.44-37.44h299.488c20.576 0 37.44 16.832 37.44 37.44s-16.832 37.44-37.44 37.44z" /></svg>